<mxfile host="65bd71144e">
    <diagram id="P3H7LM3IFzo3C1KIBj9M" name="Page-1">
        <mxGraphModel dx="443" dy="365" grid="0" gridSize="10" guides="1" tooltips="1" connect="1" arrows="1" fold="1" page="0" pageScale="1" pageWidth="827" pageHeight="1169" background="#ffffff" math="0" shadow="0">
            <root>
                <mxCell id="0"/>
                <mxCell id="1" parent="0"/>
                <mxCell id="19" style="edgeStyle=none;html=1;entryX=0;entryY=0.76;entryDx=0;entryDy=0;entryPerimeter=0;rounded=0;endArrow=none;endFill=0;fontColor=#000000;labelBackgroundColor=none;" edge="1" parent="1" source="2" target="6">
                    <mxGeometry relative="1" as="geometry">
                        <Array as="points">
                            <mxPoint x="360" y="100"/>
                        </Array>
                    </mxGeometry>
                </mxCell>
                <mxCell id="33" value="1" style="edgeLabel;html=1;align=center;verticalAlign=middle;resizable=0;points=[];fontColor=#000000;labelBackgroundColor=none;" vertex="1" connectable="0" parent="19">
                    <mxGeometry x="-0.6281" relative="1" as="geometry">
                        <mxPoint x="-27" as="offset"/>
                    </mxGeometry>
                </mxCell>
                <mxCell id="34" value="1..*" style="edgeLabel;html=1;align=center;verticalAlign=middle;resizable=0;points=[];fontColor=#000000;labelBackgroundColor=none;" vertex="1" connectable="0" parent="19">
                    <mxGeometry x="0.7071" y="3" relative="1" as="geometry">
                        <mxPoint as="offset"/>
                    </mxGeometry>
                </mxCell>
                <mxCell id="2" value="Office" style="swimlane;fontStyle=1;align=center;verticalAlign=middle;childLayout=stackLayout;horizontal=1;startSize=29;horizontalStack=0;resizeParent=1;resizeParentMax=0;resizeLast=0;collapsible=0;marginBottom=0;html=1;fontColor=#000000;labelBackgroundColor=default;" vertex="1" parent="1">
                    <mxGeometry x="40" y="40" width="200" height="120" as="geometry"/>
                </mxCell>
                <mxCell id="3" value="- name: string&lt;br&gt;&lt;div style=&quot;&quot;&gt;&lt;span style=&quot;&quot;&gt;- address: string&lt;/span&gt;&lt;/div&gt;" style="text;html=1;strokeColor=none;fillColor=none;align=left;verticalAlign=middle;spacingLeft=4;spacingRight=4;overflow=hidden;rotatable=0;points=[[0,0.5],[1,0.5]];portConstraint=eastwest;fontColor=#000000;labelBackgroundColor=none;" vertex="1" parent="2">
                    <mxGeometry y="29" width="200" height="41" as="geometry"/>
                </mxCell>
                <mxCell id="4" value="+setOffice(name,address): void&lt;br&gt;+getName():string&lt;br&gt;+getAddress():string" style="text;html=1;strokeColor=none;fillColor=none;align=left;verticalAlign=middle;spacingLeft=4;spacingRight=4;overflow=hidden;rotatable=0;points=[[0,0.5],[1,0.5]];portConstraint=eastwest;fontColor=#000000;labelBackgroundColor=none;" vertex="1" parent="2">
                    <mxGeometry y="70" width="200" height="50" as="geometry"/>
                </mxCell>
                <mxCell id="5" value="Department" style="swimlane;fontStyle=1;align=center;verticalAlign=middle;childLayout=stackLayout;horizontal=1;startSize=29;horizontalStack=0;resizeParent=1;resizeParentMax=0;resizeLast=0;collapsible=0;marginBottom=0;html=1;fontColor=#000000;labelBackgroundColor=none;" vertex="1" parent="1">
                    <mxGeometry x="497" y="40" width="200" height="119" as="geometry"/>
                </mxCell>
                <mxCell id="6" value="- name: string&lt;br&gt;&lt;div style=&quot;&quot;&gt;&lt;span style=&quot;&quot;&gt;- id: int&lt;/span&gt;&lt;/div&gt;" style="text;html=1;strokeColor=none;fillColor=none;align=left;verticalAlign=middle;spacingLeft=4;spacingRight=4;overflow=hidden;rotatable=0;points=[[0,0.5],[1,0.5]];portConstraint=eastwest;fontColor=#000000;labelBackgroundColor=none;" vertex="1" parent="5">
                    <mxGeometry y="29" width="200" height="40" as="geometry"/>
                </mxCell>
                <mxCell id="7" value="+setDep(name,id): void&lt;br&gt;+getDName():string&lt;br&gt;+getDid():id" style="text;html=1;strokeColor=none;fillColor=none;align=left;verticalAlign=middle;spacingLeft=4;spacingRight=4;overflow=hidden;rotatable=0;points=[[0,0.5],[1,0.5]];portConstraint=eastwest;fontColor=#000000;labelBackgroundColor=none;" vertex="1" parent="5">
                    <mxGeometry y="69" width="200" height="50" as="geometry"/>
                </mxCell>
                <mxCell id="8" value="Programming" style="swimlane;fontStyle=1;align=center;verticalAlign=middle;childLayout=stackLayout;horizontal=1;startSize=29;horizontalStack=0;resizeParent=1;resizeParentMax=0;resizeLast=0;collapsible=0;marginBottom=0;html=1;fontColor=#000000;labelBackgroundColor=none;" vertex="1" parent="1">
                    <mxGeometry x="387" y="209" width="200" height="130" as="geometry"/>
                </mxCell>
                <mxCell id="9" value="- wtype: string&lt;span style=&quot;white-space-collapse: preserve;&quot;&gt;&#9;&lt;/span&gt;&lt;span style=&quot;white-space-collapse: preserve;&quot;&gt;&#9;&lt;/span&gt;" style="text;html=1;strokeColor=none;fillColor=none;align=left;verticalAlign=middle;spacingLeft=4;spacingRight=4;overflow=hidden;rotatable=0;points=[[0,0.5],[1,0.5]];portConstraint=eastwest;fontColor=#000000;labelBackgroundColor=none;" vertex="1" parent="8">
                    <mxGeometry y="29" width="200" height="41" as="geometry"/>
                </mxCell>
                <mxCell id="10" value="+setPro(wtype):void&lt;br&gt;+displayProg():void" style="text;html=1;strokeColor=none;fillColor=none;align=left;verticalAlign=middle;spacingLeft=4;spacingRight=4;overflow=hidden;rotatable=0;points=[[0,0.5],[1,0.5]];portConstraint=eastwest;fontColor=#000000;labelBackgroundColor=none;" vertex="1" parent="8">
                    <mxGeometry y="70" width="200" height="60" as="geometry"/>
                </mxCell>
                <mxCell id="11" value="QA" style="swimlane;fontStyle=1;align=center;verticalAlign=middle;childLayout=stackLayout;horizontal=1;startSize=29;horizontalStack=0;resizeParent=1;resizeParentMax=0;resizeLast=0;collapsible=0;marginBottom=0;html=1;fontColor=#000000;labelBackgroundColor=none;" vertex="1" parent="1">
                    <mxGeometry x="627" y="209" width="200" height="130" as="geometry"/>
                </mxCell>
                <mxCell id="12" value="-testType:string" style="text;html=1;strokeColor=none;fillColor=none;align=left;verticalAlign=middle;spacingLeft=4;spacingRight=4;overflow=hidden;rotatable=0;points=[[0,0.5],[1,0.5]];portConstraint=eastwest;fontColor=#000000;labelBackgroundColor=none;" vertex="1" parent="11">
                    <mxGeometry y="29" width="200" height="41" as="geometry"/>
                </mxCell>
                <mxCell id="13" value="+setPro(testType):void&lt;br&gt;+displayProg():void" style="text;html=1;strokeColor=none;fillColor=none;align=left;verticalAlign=middle;spacingLeft=4;spacingRight=4;overflow=hidden;rotatable=0;points=[[0,0.5],[1,0.5]];portConstraint=eastwest;fontColor=#000000;labelBackgroundColor=none;" vertex="1" parent="11">
                    <mxGeometry y="70" width="200" height="60" as="geometry"/>
                </mxCell>
                <mxCell id="14" value="" style="verticalAlign=bottom;html=1;ellipse;fillColor=strokeColor;fontFamily=Helvetica;fontSize=11;fontColor=#000000;labelBackgroundColor=none;" vertex="1" parent="1">
                    <mxGeometry x="605" y="183" width="4" height="4" as="geometry"/>
                </mxCell>
                <mxCell id="15" value="" style="edgeStyle=elbowEdgeStyle;html=1;endSize=12;endArrow=block;endFill=0;elbow=horizontal;rounded=0;labelBackgroundColor=none;fontFamily=Helvetica;fontSize=11;fontColor=#000000;shape=connector;" edge="1" source="14" parent="1" target="7">
                    <mxGeometry x="1" relative="1" as="geometry">
                        <mxPoint x="607" y="160" as="targetPoint"/>
                        <Array as="points">
                            <mxPoint x="607" y="180"/>
                        </Array>
                    </mxGeometry>
                </mxCell>
                <mxCell id="16" value="" style="edgeStyle=elbowEdgeStyle;html=1;elbow=vertical;verticalAlign=bottom;endArrow=none;rounded=0;labelBackgroundColor=none;fontFamily=Helvetica;fontSize=11;fontColor=#000000;startSize=14;shape=connector;entryX=0.555;entryY=-0.016;entryDx=0;entryDy=0;entryPerimeter=0;" edge="1" source="14" parent="1" target="11">
                    <mxGeometry x="1" relative="1" as="geometry">
                        <mxPoint x="677" y="210" as="targetPoint"/>
                        <Array as="points">
                            <mxPoint x="647" y="185"/>
                        </Array>
                    </mxGeometry>
                </mxCell>
                <mxCell id="17" value="" style="edgeStyle=elbowEdgeStyle;html=1;elbow=vertical;verticalAlign=bottom;endArrow=none;rounded=0;labelBackgroundColor=none;fontFamily=Helvetica;fontSize=11;fontColor=#000000;startSize=14;shape=connector;entryX=0.5;entryY=0;entryDx=0;entryDy=0;" edge="1" source="14" parent="1" target="8">
                    <mxGeometry x="1" relative="1" as="geometry">
                        <mxPoint x="537" y="210" as="targetPoint"/>
                        <Array as="points">
                            <mxPoint x="567" y="185"/>
                        </Array>
                    </mxGeometry>
                </mxCell>
                <mxCell id="27" style="edgeStyle=none;html=1;entryX=0;entryY=0.5;entryDx=0;entryDy=0;rounded=0;endArrow=none;endFill=0;fontColor=#000000;labelBackgroundColor=none;" edge="1" parent="1" source="20" target="7">
                    <mxGeometry relative="1" as="geometry">
                        <Array as="points">
                            <mxPoint x="330" y="294"/>
                            <mxPoint x="330" y="135"/>
                        </Array>
                    </mxGeometry>
                </mxCell>
                <mxCell id="36" value="1" style="edgeLabel;html=1;align=center;verticalAlign=middle;resizable=0;points=[];fontColor=#000000;labelBackgroundColor=none;" vertex="1" connectable="0" parent="27">
                    <mxGeometry x="0.8898" y="2" relative="1" as="geometry">
                        <mxPoint as="offset"/>
                    </mxGeometry>
                </mxCell>
                <mxCell id="37" value="5..8" style="edgeLabel;html=1;align=center;verticalAlign=middle;resizable=0;points=[];fontColor=#000000;labelBackgroundColor=none;" vertex="1" connectable="0" parent="27">
                    <mxGeometry x="-0.9239" relative="1" as="geometry">
                        <mxPoint as="offset"/>
                    </mxGeometry>
                </mxCell>
                <mxCell id="20" value="&lt;font style=&quot;font-size: 15px;&quot;&gt;EMPLOYEE&lt;/font&gt;" style="swimlane;fontStyle=1;align=center;verticalAlign=top;childLayout=stackLayout;horizontal=1;startSize=26;horizontalStack=0;resizeParent=1;resizeParentMax=0;resizeLast=0;collapsible=1;marginBottom=0;whiteSpace=wrap;html=1;fontColor=#000000;labelBackgroundColor=none;" vertex="1" parent="1">
                    <mxGeometry x="40" y="200" width="200" height="188" as="geometry"/>
                </mxCell>
                <mxCell id="21" value="&lt;font style=&quot;font-size: 14px;&quot;&gt;-&amp;nbsp; eid: int&lt;br&gt;- name: string&lt;br&gt;- spec: string&lt;/font&gt;" style="text;strokeColor=none;fillColor=none;align=left;verticalAlign=top;spacingLeft=4;spacingRight=4;overflow=hidden;rotatable=0;points=[[0,0.5],[1,0.5]];portConstraint=eastwest;whiteSpace=wrap;html=1;fontColor=#000000;labelBackgroundColor=none;" vertex="1" parent="20">
                    <mxGeometry y="26" width="200" height="64" as="geometry"/>
                </mxCell>
                <mxCell id="22" value="" style="line;strokeWidth=1;fillColor=none;align=left;verticalAlign=middle;spacingTop=-1;spacingLeft=3;spacingRight=3;rotatable=0;labelPosition=right;points=[];portConstraint=eastwest;strokeColor=inherit;fontColor=#000000;labelBackgroundColor=none;" vertex="1" parent="20">
                    <mxGeometry y="90" width="200" height="8" as="geometry"/>
                </mxCell>
                <mxCell id="23" value="&lt;font style=&quot;font-size: 14px;&quot;&gt;+ setEmp(eid,name,spec):void&lt;br&gt;+ getEname():string&lt;br&gt;+ getEid():int&lt;br&gt;+ getSpec():string&lt;br&gt;&lt;/font&gt;" style="text;strokeColor=none;fillColor=none;align=left;verticalAlign=top;spacingLeft=4;spacingRight=4;overflow=hidden;rotatable=0;points=[[0,0.5],[1,0.5]];portConstraint=eastwest;whiteSpace=wrap;html=1;fontColor=#000000;labelBackgroundColor=none;" vertex="1" parent="20">
                    <mxGeometry y="98" width="200" height="90" as="geometry"/>
                </mxCell>
                <mxCell id="28" value="&lt;span style=&quot;font-size: 15px;&quot;&gt;MANAGER&lt;/span&gt;" style="swimlane;fontStyle=1;align=center;verticalAlign=top;childLayout=stackLayout;horizontal=1;startSize=26;horizontalStack=0;resizeParent=1;resizeParentMax=0;resizeLast=0;collapsible=1;marginBottom=0;whiteSpace=wrap;html=1;fontColor=#000000;labelBackgroundColor=none;" vertex="1" parent="1">
                    <mxGeometry x="20" y="460" width="240" height="188" as="geometry"/>
                </mxCell>
                <mxCell id="29" value="&lt;span style=&quot;font-size: 14px;&quot;&gt;-respon:string&lt;/span&gt;" style="text;strokeColor=none;fillColor=none;align=left;verticalAlign=top;spacingLeft=4;spacingRight=4;overflow=hidden;rotatable=0;points=[[0,0.5],[1,0.5]];portConstraint=eastwest;whiteSpace=wrap;html=1;fontColor=#000000;labelBackgroundColor=none;" vertex="1" parent="28">
                    <mxGeometry y="26" width="240" height="64" as="geometry"/>
                </mxCell>
                <mxCell id="30" value="" style="line;strokeWidth=1;fillColor=none;align=left;verticalAlign=middle;spacingTop=-1;spacingLeft=3;spacingRight=3;rotatable=0;labelPosition=right;points=[];portConstraint=eastwest;strokeColor=inherit;fontColor=#000000;labelBackgroundColor=none;" vertex="1" parent="28">
                    <mxGeometry y="90" width="240" height="8" as="geometry"/>
                </mxCell>
                <mxCell id="31" value="&lt;font style=&quot;font-size: 14px;&quot;&gt;+ setManager(respon):void&lt;br&gt;+ getMNamd():string&lt;/font&gt;" style="text;strokeColor=none;fillColor=none;align=left;verticalAlign=top;spacingLeft=4;spacingRight=4;overflow=hidden;rotatable=0;points=[[0,0.5],[1,0.5]];portConstraint=eastwest;whiteSpace=wrap;html=1;fontColor=#000000;labelBackgroundColor=none;" vertex="1" parent="28">
                    <mxGeometry y="98" width="240" height="90" as="geometry"/>
                </mxCell>
                <mxCell id="35" value="has" style="text;html=1;align=center;verticalAlign=middle;resizable=0;points=[];autosize=1;strokeColor=none;fillColor=none;fontColor=#000000;labelBackgroundColor=none;" vertex="1" parent="1">
                    <mxGeometry x="360" y="70" width="40" height="30" as="geometry"/>
                </mxCell>
                <mxCell id="39" value="" style="edgeStyle=elbowEdgeStyle;html=1;endSize=12;endArrow=block;endFill=0;elbow=horizontal;rounded=0;labelBackgroundColor=none;fontFamily=Helvetica;fontSize=11;fontColor=#000000;shape=connector;" edge="1" parent="1">
                    <mxGeometry x="1" relative="1" as="geometry">
                        <mxPoint x="140" y="388" as="targetPoint"/>
                        <mxPoint x="140" y="420" as="sourcePoint"/>
                    </mxGeometry>
                </mxCell>
                <mxCell id="41" value="" style="edgeStyle=elbowEdgeStyle;html=1;elbow=vertical;verticalAlign=bottom;endArrow=none;rounded=0;labelBackgroundColor=none;fontFamily=Helvetica;fontSize=11;fontColor=#000000;startSize=14;shape=connector;entryX=0.5;entryY=0;entryDx=0;entryDy=0;" edge="1" parent="1" target="28">
                    <mxGeometry x="1" relative="1" as="geometry">
                        <mxPoint x="70" y="438" as="targetPoint"/>
                        <Array as="points">
                            <mxPoint x="140" y="440"/>
                            <mxPoint x="100" y="413"/>
                        </Array>
                        <mxPoint x="140" y="414.9999999999999" as="sourcePoint"/>
                    </mxGeometry>
                </mxCell>
                <mxCell id="42" style="edgeStyle=none;html=1;exitX=1;exitY=0.5;exitDx=0;exitDy=0;entryX=0;entryY=0.5;entryDx=0;entryDy=0;rounded=0;endArrow=none;endFill=0;fontColor=#000000;labelBackgroundColor=none;" edge="1" parent="1" source="29" target="10">
                    <mxGeometry relative="1" as="geometry">
                        <mxPoint x="380" y="309" as="targetPoint"/>
                        <Array as="points">
                            <mxPoint x="320" y="518"/>
                            <mxPoint x="320" y="310"/>
                        </Array>
                    </mxGeometry>
                </mxCell>
                <mxCell id="44" value="manages" style="edgeLabel;html=1;align=center;verticalAlign=middle;resizable=0;points=[];fontColor=#000000;labelBackgroundColor=none;" vertex="1" connectable="0" parent="42">
                    <mxGeometry x="-0.1065" relative="1" as="geometry">
                        <mxPoint as="offset"/>
                    </mxGeometry>
                </mxCell>
                <mxCell id="43" style="edgeStyle=none;html=1;entryX=0;entryY=0.5;entryDx=0;entryDy=0;rounded=0;endArrow=none;endFill=0;fontColor=#000000;labelBackgroundColor=none;" edge="1" parent="1" source="31" target="13">
                    <mxGeometry relative="1" as="geometry">
                        <Array as="points">
                            <mxPoint x="600" y="600"/>
                            <mxPoint x="600" y="310"/>
                        </Array>
                    </mxGeometry>
                </mxCell>
                <mxCell id="45" value="manages" style="edgeLabel;html=1;align=center;verticalAlign=middle;resizable=0;points=[];fontColor=#000000;labelBackgroundColor=none;" vertex="1" connectable="0" parent="43">
                    <mxGeometry x="0.5373" y="4" relative="1" as="geometry">
                        <mxPoint as="offset"/>
                    </mxGeometry>
                </mxCell>
            </root>
        </mxGraphModel>
    </diagram>
</mxfile>